<?xml version="1.0" encoding="UTF-8"?>
<!DOCTYPE svg PUBLIC "-//W3C//DTD SVG 1.1//EN" "http://www.w3.org/Graphics/SVG/1.1/DTD/svg11.dtd">
<!-- Creator: CorelDRAW 2020 (64-Bit) -->
<svg xmlns="http://www.w3.org/2000/svg" xml:space="preserve" width="32px" height="32px" version="1.1" style="shape-rendering:geometricPrecision; text-rendering:geometricPrecision; image-rendering:optimizeQuality; fill-rule:evenodd; clip-rule:evenodd"
viewBox="0 0 29.01 29.22"
 xmlns:xlink="http://www.w3.org/1999/xlink"
 xmlns:xodm="http://www.corel.com/coreldraw/odm/2003">
 <defs>
  <style type="text/css">
   <![CDATA[
    .fil0 {fill:#2F80ED}
   ]]>
  </style>
 </defs>
 <g id="Слой_x0020_1">
  <metadata id="CorelCorpID_0Corel-Layer"/>
  <path class="fil0" d="M14.51 0c8.01,0 14.5,6.54 14.5,14.61 0,8.07 -6.49,14.61 -14.5,14.61 -8.02,0 -14.51,-6.54 -14.51,-14.61 0,-8.07 6.49,-14.61 14.51,-14.61zm6.1 25.4c-1.46,0 -3.54,-1.28 -6.23,-3.83l-4.3 -4.32 0 0.2 0 7.53c0,0.95 -0.42,1.42 -1.25,1.42 -0.55,0 -0.99,-0.24 -1.32,-0.72 -0.27,-0.39 -0.4,-0.82 -0.4,-1.28 0,-2.24 0.06,-5.59 0.19,-10.05 0.13,-4.47 0.19,-7.81 0.19,-10.05 0,-0.41 0.14,-0.76 0.41,-1.05 0.28,-0.29 0.62,-0.43 1.03,-0.43 0.41,0 0.76,0.14 1.03,0.43 0.28,0.29 0.42,0.64 0.42,1.05 0,0.93 -0.05,2.38 -0.16,4.34 -0.1,1.9 -0.15,3.35 -0.14,4.35 1.28,-1.21 2.72,-2.73 4.33,-4.57l4.11 -4.77c0.33,-0.38 0.69,-0.56 1.09,-0.56 0.38,0 0.73,0.14 1.02,0.43 0.3,0.28 0.45,0.63 0.45,1.04 0,0.63 -1.24,2.32 -3.7,5.05 -1.71,1.87 -3.47,3.69 -5.29,5.48 1.15,1.21 2.95,2.94 5.4,5.2l1.51 1.27c0.55,0.42 1.14,0.73 1.77,0.94 0.75,0.25 1.13,0.73 1.13,1.42 0,0.33 -0.1,0.64 -0.3,0.94 -0.25,0.36 -0.58,0.54 -0.99,0.54z"/>
 </g>
</svg>
